<svg width="268.474" height="170.894" xmlns="http://www.w3.org/2000/svg">

 <g>
  <title>Layer 1</title>
  <g transform="rotate(90 4804.41 487.551)" data-name="Grupo 19" id="Grupo_19">
   <g data-name="Grupo 17" id="Grupo_17">
    <path fill="#999999" d="m4336.48011,5181.29598a9.81,9.81 0 1 1 -9.81,-9.81a9.81,9.81 0 0 1 9.81,9.81z" data-name="Caminho 3543" id="Caminho_3543"/>
    <path fill="#999999" d="m4386.89917,5181.29598a9.81,9.81 0 1 1 -9.81,-9.81a9.81,9.81 0 0 1 9.81,9.81z" data-name="Caminho 3544" id="Caminho_3544"/>
    <path fill="#999999" d="m4437.3182,5181.29598a9.8,9.8 0 1 1 -2.864,-6.936a9.81,9.81 0 0 1 2.864,6.936z" data-name="Caminho 3545" id="Caminho_3545"/>
    <path fill="#999999" d="m4487.75313,5181.29598a9.81,9.81 0 1 1 -9.81,-9.81a9.81,9.81 0 0 1 9.81,9.81z" data-name="Caminho 3546" id="Caminho_3546"/>
    <path fill="#999999" d="m4336.48011,5231.68688a9.81,9.81 0 1 1 -9.81,-9.8a9.81,9.81 0 0 1 9.81,9.8z" data-name="Caminho 3547" id="Caminho_3547"/>
    <path fill="#999999" d="m4386.89917,5231.68688a9.81,9.81 0 1 1 -9.81,-9.8a9.81,9.81 0 0 1 9.81,9.8z" data-name="Caminho 3548" id="Caminho_3548"/>
    <path fill="#999999" d="m4437.3182,5231.68688a9.81,9.81 0 1 1 -9.8,-9.8a9.81,9.81 0 0 1 9.8,9.8z" data-name="Caminho 3549" id="Caminho_3549"/>
    <path fill="#999999" d="m4487.75313,5231.68688a9.81,9.81 0 1 1 -9.81,-9.8a9.811,9.811 0 0 1 9.81,9.8z" data-name="Caminho 3550" id="Caminho_3550"/>
    <path fill="#999999" d="m4336.48011,5282.14994a9.8,9.8 0 1 1 -2.869,-6.941a9.81,9.81 0 0 1 2.869,6.941z" data-name="Caminho 3551" id="Caminho_3551"/>
    <path fill="#999999" d="m4386.89917,5282.14994a9.8,9.8 0 1 1 -2.869,-6.941a9.81,9.81 0 0 1 2.869,6.941z" data-name="Caminho 3552" id="Caminho_3552"/>
    <path fill="#999999" d="m4437.3182,5282.14994a9.8,9.8 0 1 1 -2.864,-6.936a9.81,9.81 0 0 1 2.864,6.936z" data-name="Caminho 3553" id="Caminho_3553"/>
    <path fill="#999999" d="m4487.75313,5282.14994a9.8,9.8 0 1 1 -2.869,-6.941a9.81,9.81 0 0 1 2.869,6.941z" data-name="Caminho 3554" id="Caminho_3554"/>
   </g>
   <g data-name="Grupo 18" id="Grupo_18">
    <path fill="#999999" d="m4336.48011,5033.29598a9.81,9.81 0 1 1 -9.81,-9.81a9.81,9.81 0 0 1 9.81,9.81z" data-name="Caminho 3543" id="Caminho_3543-2"/>
    <path fill="#999999" d="m4386.89917,5033.29598a9.81,9.81 0 1 1 -9.81,-9.81a9.81,9.81 0 0 1 9.81,9.81z" data-name="Caminho 3544" id="Caminho_3544-2"/>
    <path fill="#999999" d="m4437.3182,5033.29598a9.8,9.8 0 1 1 -2.864,-6.936a9.81,9.81 0 0 1 2.864,6.936z" data-name="Caminho 3545" id="Caminho_3545-2"/>
    <path fill="#999999" d="m4487.75313,5033.29598a9.81,9.81 0 1 1 -9.81,-9.81a9.81,9.81 0 0 1 9.81,9.81z" data-name="Caminho 3546" id="Caminho_3546-2"/>
    <path fill="#999999" d="m4336.48011,5083.68688a9.81,9.81 0 1 1 -9.81,-9.8a9.81,9.81 0 0 1 9.81,9.8z" data-name="Caminho 3547" id="Caminho_3547-2"/>
    <path fill="#999999" d="m4386.89917,5083.68688a9.81,9.81 0 1 1 -9.81,-9.8a9.81,9.81 0 0 1 9.81,9.8z" data-name="Caminho 3548" id="Caminho_3548-2"/>
    <path fill="#999999" d="m4437.3182,5083.68688a9.81,9.81 0 1 1 -9.8,-9.8a9.81,9.81 0 0 1 9.8,9.8z" data-name="Caminho 3549" id="Caminho_3549-2"/>
    <path fill="#999999" d="m4487.75313,5083.68688a9.81,9.81 0 1 1 -9.81,-9.8a9.811,9.811 0 0 1 9.81,9.8z" data-name="Caminho 3550" id="Caminho_3550-2"/>
    <path fill="#999999" d="m4336.48011,5134.14994a9.8,9.8 0 1 1 -2.869,-6.941a9.81,9.81 0 0 1 2.869,6.941z" data-name="Caminho 3551" id="Caminho_3551-2"/>
    <path fill="#999999" d="m4386.89917,5134.14994a9.8,9.8 0 1 1 -2.869,-6.941a9.81,9.81 0 0 1 2.869,6.941z" data-name="Caminho 3552" id="Caminho_3552-2"/>
    <path fill="#999999" d="m4437.3182,5134.14994a9.8,9.8 0 1 1 -2.864,-6.936a9.81,9.81 0 0 1 2.864,6.936z" data-name="Caminho 3553" id="Caminho_3553-2"/>
    <path fill="#999999" d="m4487.75313,5134.14994a9.8,9.8 0 1 1 -2.869,-6.941a9.81,9.81 0 0 1 2.869,6.941z" data-name="Caminho 3554" id="Caminho_3554-2"/>
   </g>
  </g>
 </g>
</svg>