<svg width="2919.8" height="1731.0469999999998" xmlns="http://www.w3.org/2000/svg" style="vector-effect: non-scaling-stroke;" stroke="null">

 <g stroke="null">
  <title stroke="null">Layer 1</title>
  <path stroke="null" fill="#fad141" d="m20.08017,3.16425c29.78219,136.97539 154.03237,261.15004 349.5284,349.31713c235.66663,105.47389 552.74767,143.72563 817.82899,224.57342c279.98603,85.54126 522.08496,199.19955 764.88543,310.07044l383.28482,174.97769c115.5647,52.79766 232.55657,106.17221 324.79056,170.87171c200.72892,140.64069 225.81764,322.33795 244.58264,495.53403c0.30147,2.88167 8.99969,2.75487 8.65706,-0.16692c-15.90656,-146.94851 -33.50011,-300.75405 -164.81636,-431.08531c-69.03147,-68.45058 -169.27575,-125.46547 -276.34552,-177.55555c-119.89286,-58.10463 -245.44848,-113.32017 -368.63163,-169.59194c-241.32648,-110.15531 -477.92875,-225.13636 -742.22574,-320.5025c-129.41233,-46.70646 -267.04922,-87.05007 -411.26736,-120.55136c-143.93269,-33.43229 -292.11233,-63.0356 -427.25619,-105.24452c-272.84361,-85.20259 -458.01036,-231.88149 -494.38023,-400.88439c-0.56831,-2.84924 -9.26654,-2.72244 -8.59801,0.17162l-0.03687,0.06644z" data-name="Caminho 3556" id="Caminho_3556"/>
 </g>
</svg>