<svg width="2919.8" height="1731.0469999999998" xmlns="http://www.w3.org/2000/svg" stroke="null">
 <g stroke="null">
  <title stroke="null">Layer 1</title>
  <path transform="rotate(146 1487.16 877.397)" stroke="null" id="Caminho_3556" data-name="Caminho 3556" d="m-51.20155,-60.80999c31.66735,148.98717 163.78235,284.05106 371.65293,379.94979c250.58391,114.72321 587.73562,156.32936 869.59611,244.26693c297.70865,93.04263 555.13201,216.66795 813.30132,337.26144l407.54607,190.322c122.87974,57.42764 247.27699,115.48277 345.34923,185.85596c213.4347,152.97389 240.1115,350.60472 260.06429,538.98888c0.32055,3.13437 9.56935,2.99645 9.20504,-0.18156c-16.91342,-159.83486 -35.62061,-327.12807 -175.24894,-468.88846c-73.40104,-74.45322 -179.9906,-136.46791 -293.8377,-193.12592c-127.48187,-63.2 -260.98493,-123.25755 -391.96536,-184.46396c-256.60202,-119.81516 -508.18079,-244.87924 -789.20731,-348.60832c-137.6039,-50.80229 -283.95296,-94.68375 -437.29985,-131.12287c-153.04337,-36.36407 -310.60252,-68.56338 -454.30075,-114.47373c-290.11413,-92.67426 -487.0016,-252.21587 -525.67362,-436.03914c-0.60428,-3.0991 -9.8531,-2.96118 -9.14225,0.18667l-0.0392,0.07227l0.00001,0.00001z" fill="#fc4c86"/>
 </g>

</svg>